<svg width="15" height="15" fill="none" xmlns="http://www.w3.org/2000/svg"><path d="M7.5 0c2.038 0 2.292.007 3.091.045.8.038 1.343.163 1.822.349.495.19.912.448 1.329.864.38.375.676.829.864 1.33.185.477.312 1.022.349 1.82.035.8.045 1.054.045 3.092 0 2.038-.008 2.292-.045 3.091-.037.8-.164 1.343-.349 1.822-.188.5-.483.954-.864 1.329a3.687 3.687 0 01-1.33.864c-.477.185-1.022.312-1.82.349-.8.035-1.054.045-3.092.045-2.038 0-2.292-.008-3.091-.045-.8-.037-1.343-.164-1.821-.349a3.668 3.668 0 01-1.33-.864 3.678 3.678 0 01-.864-1.33c-.186-.477-.311-1.022-.349-1.82C.01 9.791 0 9.537 0 7.5c0-2.038.007-2.292.045-3.091.038-.8.163-1.343.349-1.821.187-.501.483-.955.864-1.33a3.673 3.673 0 011.33-.864C3.066.208 3.608.083 4.407.045 5.208.01 5.463 0 7.5 0zm0 3.75a3.75 3.75 0 100 7.5 3.75 3.75 0 000-7.5zm4.875-.188a.938.938 0 10-1.875 0 .938.938 0 001.875 0zM7.5 5.25a2.25 2.25 0 110 4.5 2.25 2.25 0 010-4.5z" fill="currentColor"/></svg>C0.0825 3.609 0.20775 3.066 0.39375 2.5875C0.581427 2.08663 0.876603 1.63299 1.2585 1.2585C1.63325 0.876923 2.08682 0.581797 2.5875 0.39375C3.066 0.20775 3.609 0.0825 4.4085 0.045C5.208 0.00974996 5.46225 0 7.5 0ZM7.5 3.75C6.50544 3.75 5.55161 4.14509 4.84835 4.84835C4.14509 5.55161 3.75 6.50544 3.75 7.5C3.75 8.49456 4.14509 9.44839 4.84835 10.1517C5.55161 10.8549 6.50544 11.25 7.5 11.25C8.49456 11.25 9.44839 10.8549 10.1517 10.1517C10.8549 9.44839 11.25 8.49456 11.25 7.5C11.25 6.50544 10.8549 5.55161 10.1517 4.84835C9.44839 4.14509 8.49456 3.75 7.5 3.75ZM12.375 3.5625C12.375 3.31386 12.2762 3.0754 12.1004 2.89959C11.9246 2.72377 11.6861 2.625 11.4375 2.625C11.1889 2.625 10.9504 2.72377 10.7746 2.89959C10.5988 3.0754 10.5 3.31386 10.5 3.5625C10.5 3.81114 10.5988 4.0496 10.7746 4.22541C10.9504 4.40123 11.1889 4.5 11.4375 4.5C11.6861 4.5 11.9246 4.40123 12.1004 4.22541C12.2762 4.0496 12.375 3.81114 12.375 3.5625ZM7.5 5.25C8.09674 5.25 8.66903 5.48705 9.09099 5.90901C9.51295 6.33097 9.75 6.90326 9.75 7.5C9.75 8.09674 9.51295 8.66903 9.09099 9.09099C8.66903 9.51295 8.09674 9.75 7.5 9.75C6.90326 9.75 6.33097 9.51295 5.90901 9.09099C5.48705 8.66903 5.25 8.09674 5.25 7.5C5.25 6.90326 5.48705 6.33097 5.90901 5.90901C6.33097 5.48705 6.90326 5.25 7.5 5.25Z" fill="currentColor"/>
</svg>
